<svg width="390" height="390" viewBox="0 0 390 390" fill="none" xmlns="http://www.w3.org/2000/svg">
<path d="M207.439 38.3911C126.151 38.2914 44.9023 73.5035 5.23791 153.919C52.6892 145.826 97.3554 158.849 139.584 181.478C196.471 149.39 256.893 145.11 313.445 166.179C321.967 132.916 347.973 114.312 385.962 105.794C342.182 62.8093 274.797 38.477 207.441 38.3927L207.439 38.3911ZM265.9 170.839C256.658 170.839 249.208 178.334 249.208 187.936C249.208 197.541 256.659 205.035 265.9 205.035C275.14 205.035 282.592 197.541 282.592 187.938C282.592 178.336 275.142 170.841 265.9 170.841V170.839ZM198.778 174.233C189.536 174.233 182.086 181.727 182.086 191.33C182.086 200.931 189.537 208.426 198.778 208.426C208.018 208.426 215.47 200.931 215.47 191.329C215.47 181.724 208.02 174.231 198.778 174.231V174.233ZM362.077 177.628C358.702 177.717 354.96 178.709 350.778 180.717C341.22 185.309 329.903 195.91 319.472 213.798L316.837 218.306L311.695 217.444C289.72 213.786 273.733 217.29 259.771 227.019C248.946 234.561 239.267 246.375 230.11 262.176C247.869 258.156 266.201 255.149 285.632 255.438L286.949 255.464C292.771 250.984 298.851 245.484 305.389 238.595C300.97 249.134 296.598 259.79 290.849 269.322C290.835 269.348 290.814 269.371 290.799 269.397C281.997 285.561 263.711 298.634 245.738 309.696C270.076 327.366 295.943 331.226 318.686 325.02C344.02 318.109 365.596 298.61 375.882 270.183C384.71 245.786 387.373 225.548 386.064 210.507C384.756 195.466 379.531 185.953 373.525 181.429C370.523 179.168 367.235 177.842 363.496 177.655C363.024 177.628 362.551 177.62 362.078 177.631L362.077 177.628ZM31.7798 207.288C18.2422 207.663 10.4642 212.869 6.42615 221.269C2.11734 230.23 2.30052 244.588 10.3265 262.531C18.3524 280.473 34.0225 301.615 58.8314 323.271C87.642 348.417 123.48 356.705 155.742 348.624C185.398 341.197 212.209 320.014 227.981 283.858C211.214 283.493 195.827 282.834 182.059 278.768C181.954 278.744 181.856 278.715 181.754 278.691C157.323 272.858 142.69 260.772 124.028 242.293C138.104 249.737 150.342 253.843 161.312 255.743L161.415 255.692C182.296 243.513 192.463 238.841 209.642 233.681C170.344 207.987 136.469 212.064 104.905 231.019L103.107 232.109H98.7755L96.8999 230.92C71.2521 214.458 49.8345 207.581 34.5648 207.287C33.636 207.266 32.7069 207.266 31.7781 207.287L31.7798 207.288Z" fill="white"/>
</svg>
